<svg height="24" viewBox="0 0 24 24" width="24" xmlns="http://www.w3.org/2000/svg"><path d="m19.781 10.597h-5.156v-4.5h-1.688c.499-.661.8-1.496.8-2.401 0-.006 0-.011 0-.017v.001c0-1.296-.613-2.513-1.6-3.177l-.419-.282-.419.282c-.987.664-1.6 1.881-1.6 3.177v.016c0 .905.3 1.74.807 2.411l-.007-.01h-1.874v4.5h-4.406c-1.501.002-2.717 1.218-2.719 2.719v8.434c.001.828.672 1.499 1.5 1.5h18c.828-.001 1.499-.672 1.5-1.5v-8.434c-.002-1.501-1.218-2.717-2.719-2.719zm-8.063-8.462c.328.407.519.959.519 1.545s-.191 1.138-.519 1.545c-.328-.407-.519-.959-.519-1.545s.191-1.138.519-1.545zm-1.593 5.462h3v3h-3zm-7.125 5.719c.001-.673.546-1.218 1.219-1.219h15.563c.673.001 1.218.546 1.219 1.219v1.48l-1.013.447c-.185.083-.401.132-.628.132s-.443-.049-.638-.136l.01.004-1.762-.777-1.762.777c-.185.083-.401.132-.628.132s-.443-.049-.638-.136l.01.004-1.762-.777-1.762.777c-.185.084-.401.132-.628.132s-.443-.049-.638-.136l.01.004-1.762-.777-1.762.777c-.185.084-.401.132-.628.132s-.443-.049-.638-.136l.01.004-1.387-.612zm18 8.434h-18v-5.48l.782.345c.363.164.787.259 1.234.259s.871-.096 1.253-.267l-.019.008 1.157-.51 1.157.51c.363.164.787.259 1.234.259s.871-.096 1.253-.267l-.019.008 1.157-.51 1.157.51c.363.164.787.259 1.234.259s.871-.096 1.253-.267l-.019.008 1.157-.51 1.157.51c.363.164.787.259 1.234.259s.871-.095 1.253-.267l-.019.008.408-.18.001 5.315z"/></svg>