<svg enable-background="new 0 0 395.024 395.024" viewBox="0 0 395.024 395.024" xmlns="http://www.w3.org/2000/svg"><path d="m394.91 229.818-4.136-42.421c-1.995-20.467-13.039-38.638-29.933-49.721 2.857-2.144 4.471-5.75 3.888-9.527-.842-5.459-5.946-9.205-11.408-8.358l-23.06 3.558c-47.529-17.26-127.164-26.702-235.951 27.036-10.438 5.155-21.633 8.53-33.275 10.029-24.36 3.136-41.809 12.833-51.86 28.822-16.428 26.133-5.878 58.798-5.421 60.176 1.357 4.09 5.182 6.851 9.491 6.851h33.208c4.426 16.642 19.619 28.942 37.635 28.942s33.209-12.3 37.635-28.942h171.607c4.426 16.642 19.619 28.942 37.635 28.942s33.209-12.3 37.635-28.942h2.319c6.786 0 13.293-2.883 17.853-7.908 4.56-5.028 6.797-11.783 6.138-18.537zm-45.002 16.444c0 10.445-8.498 18.942-18.943 18.942s-18.943-8.497-18.943-18.942 8.498-18.943 18.943-18.943 18.943 8.498 18.943 18.943zm-246.876 0c0 10.445-8.498 18.942-18.943 18.942s-18.943-8.497-18.943-18.942 8.498-18.943 18.943-18.943 18.943 8.498 18.943 18.943zm265.569-10c-4.426-16.643-19.619-28.943-37.635-28.943s-33.209 12.301-37.635 28.943h-171.607c-4.426-16.643-19.619-28.943-37.635-28.943s-33.209 12.301-37.635 28.943h-25.318c-1.572-8.758-2.728-24.221 5.029-36.474 6.732-10.635 19.323-17.209 37.424-19.539 13.839-1.782 27.155-5.797 39.579-11.934 102.926-50.841 177.047-41.996 220.72-26.003.961.561 2.018.96 3.132 1.176 7.254 2.804 13.612 5.781 19.055 8.665 13.978 7.407 23.247 21.308 24.795 37.184l4.136 42.422c.153 1.574-.589 2.653-1.045 3.156-.457.503-1.458 1.347-3.041 1.347z" fill="#211915"/></svg>