<svg enable-background="new 0 0 512 512" viewBox="0 0 512 512" xmlns="http://www.w3.org/2000/svg"><path d="m455.41 281.927c-3.384-4.39-9.687-5.206-14.08-1.821-4.392 3.385-5.207 9.689-1.822 14.08 10.321 13.388 15.776 29.425 15.776 46.376 0 5.544 4.495 10.039 10.039 10.039s10.039-4.496 10.039-10.039c0-21.427-6.899-41.703-19.952-58.635z"/><path d="m421.676 214.571c20.383-13.757 33.813-37.064 33.813-63.449 0-42.187-34.322-76.509-76.509-76.509s-76.509 34.322-76.509 76.509c0 26.373 13.417 49.671 33.785 63.431-14.838 5.023-28.73 12.672-41.064 22.701-10.436-10.037-24.442-15.818-39.191-15.818-14.748 0-28.754 5.783-39.184 15.818-12.338-10.029-26.232-17.678-41.072-22.702 20.368-13.76 33.785-37.058 33.785-63.432 0-42.187-34.322-76.509-76.509-76.509-42.182 0-76.499 34.322-76.499 76.509 0 26.385 13.427 49.691 33.807 63.449-52.388 17.801-90.202 67.425-90.315 125.732-.003.089-.014.173-.014.261 0 15.413 8.758 38.16 50.484 59 29.732 14.85 70.59 26.013 118.158 32.28 27.902 3.68 57.294 5.547 87.359 5.547 30.072 0 59.467-1.866 87.368-5.547 47.564-6.267 88.419-17.43 118.15-32.28 41.723-20.841 50.481-43.587 50.481-59 0-58.419-37.855-108.163-90.324-125.991zm-99.126-63.449c0-31.116 25.315-56.43 56.43-56.43s56.43 25.315 56.43 56.43c0 31.111-25.315 56.42-56.43 56.42s-56.43-25.309-56.43-56.42zm-96.504 106.077c6.821-9.82 18.017-15.684 29.954-15.684 11.943 0 23.143 5.864 29.963 15.684.001.003.003.005.004.007 4.256 6.119 6.504 13.304 6.504 20.781 0 20.111-16.361 36.472-36.472 36.472-20.106 0-36.462-16.362-36.462-36.473 0-7.488 2.247-14.671 6.509-20.787zm-149.447-106.077c0-31.116 25.31-56.43 56.42-56.43 31.116 0 56.43 25.315 56.43 56.43 0 31.111-25.315 56.42-56.43 56.42-31.11 0-56.42-25.309-56.42-56.42zm83.32 259.201c-40.485-6.165-75.045-16.028-100.462-28.723-25.32-12.645-39.292-27.173-39.373-40.918 0-.04.006-.079.006-.119-.001-62.276 50.66-112.942 112.93-112.942 26.492 0 51.767 9.152 71.993 25.915-3.647 7.579-5.553 15.888-5.553 24.452 0 17.477 7.971 33.126 20.465 43.508-35.091 14.267-59.915 48.695-60.006 88.827zm172.098 2.687c-24.419 2.849-49.941 4.302-76.017 4.302-26.07 0-51.588-1.453-76.007-4.302v-2.465c0-41.911 34.096-76.007 76.007-76.007 41.916 0 76.017 34.096 76.017 76.007zm120.529-31.411c-25.415 12.696-59.971 22.558-100.452 28.723-.091-40.132-24.917-74.558-60.011-88.827 12.497-10.382 20.47-26.031 20.47-43.509 0-8.554-1.906-16.865-5.557-24.451 20.217-16.764 45.489-25.916 71.986-25.916 62.275.001 112.94 50.667 112.94 112.942 0 13.782-13.984 28.356-39.376 41.038z"/><path d="m425.328 258.344c-12.919 0-12.942 20.078 0 20.078 12.92 0 12.941-20.078 0-20.078z"/></svg>