<svg enable-background="new 0 0 512 512" viewBox="0 0 512 512" xmlns="http://www.w3.org/2000/svg"><path d="m395.636 116.364c-19.247 0-34.909 15.663-34.909 34.909 0 19.247 15.663 34.909 34.909 34.909 19.247 0 34.909-15.663 34.909-34.909 0-19.247-15.662-34.909-34.909-34.909zm0 46.545c-6.423 0-11.636-5.213-11.636-11.636s5.213-11.636 11.636-11.636 11.636 5.213 11.636 11.636c.001 6.423-5.212 11.636-11.636 11.636z"/><circle cx="407.273" cy="232.727" r="11.636"/><circle cx="162.909" cy="232.727" r="11.636"/><circle cx="407.273" cy="279.273" r="11.636"/><circle cx="407.273" cy="325.818" r="11.636"/><path d="m512 174.545v-69.818c0-6.435-5.201-11.636-11.636-11.636h-25.414c-4.817-13.51-17.617-23.273-32.768-23.273h-34.909v-23.273c0-6.435-5.201-11.636-11.636-11.636s-11.636 5.201-11.636 11.636v23.273h-209.456v-23.273c0-6.435-5.201-11.636-11.636-11.636s-11.636 5.201-11.636 11.636v23.273h-38.47c-17.14 0-31.616 12.276-34.432 29.172l-4.573 27.415c-2.641 15.884-3.98 32.07-3.98 48.14s1.338 32.256 3.991 48.151l1.327 7.959c4.445 26.682 26.38 46.208 52.945 48.233-.012.128-.081.244-.081.384 0 6.435 5.201 11.636 11.636 11.636v34.909c0 6.435 5.201 11.636 11.636 11.636s11.636-5.201 11.636-11.636v-34.909c6.435 0 11.636-5.201 11.636-11.636 19.247 0 34.909-15.663 34.909-34.909v-34.909c0-6.423 5.213-11.636 11.636-11.636h93.091c6.423 0 11.636 5.213 11.636 11.636v116.364c0 6.435 5.201 11.636 11.636 11.636s11.636-5.201 11.636-11.636v-116.363c0-19.247-15.663-34.909-34.909-34.909h-93.091c-4.096 0-7.983.838-11.636 2.141v-13.777c0-6.435-5.201-11.636-11.636-11.636s-11.636 5.201-11.636 11.636v81.455c0 6.423-5.213 11.636-11.636 11.636h-42.019c-17.14 0-31.616-12.276-34.432-29.184l-1.327-7.959c-2.444-14.615-3.677-29.521-3.677-44.311s1.233-29.696 3.665-44.323l4.573-27.415c.931-5.62 5.76-9.716 11.473-9.716h329.379c6.423 0 11.636 5.213 11.636 11.636v58.205c0 23.889 2.374 47.895 7.063 71.377l21.225 106.135c4.398 21.969 6.621 44.439 6.621 66.804v34.932c0 6.423-5.213 11.636-11.636 11.636h-442.179c-6.423 0-11.636-5.213-11.636-11.636v-23.273c0-19.247 15.663-34.909 34.909-34.909h395.636c6.435 0 11.636-5.201 11.636-11.636s-5.201-11.636-11.636-11.636h-395.636c-32.082-.001-58.182 26.1-58.182 58.181v23.273c0 19.247 15.663 34.909 34.909 34.909h442.182c19.247 0 34.909-15.663 34.909-34.909v-34.932c0-23.889-2.374-47.895-7.063-71.377l-21.225-106.135c-2.863-14.359-4.713-28.94-5.714-43.555h22.365c6.436-.001 11.637-5.203 11.637-11.638zm-23.273-11.636h-11.636v-46.545h11.636z"/></svg>